<svg width="512" height="512" xmlns="http://www.w3.org/2000/svg" role="img" class="svg-inline--fa fa-times-circle fa-w-16" data-icon="times-circle" data-prefix="far" focusable="false" aria-hidden="true">

 <g>
  <title>Layer 1</title>
  <path id="svg_1" d="m255,12c-137,0 -248,111 -248,248s111,248 248,248s248,-111 248,-248s-111,-248 -248,-248zm0,448c-110.5,0 -200,-89.5 -200,-200s89.5,-200 200,-200s200,89.5 200,200s-89.5,200 -200,200zm101.8,-262.2l-62.2,62.2l62.2,62.2c4.7,4.7 4.7,12.3 0,17l-22.6,22.6c-4.7,4.7 -12.3,4.7 -17,0l-62.2,-62.2l-62.2,62.2c-4.7,4.7 -12.3,4.7 -17,0l-22.6,-22.6c-4.7,-4.7 -4.7,-12.3 0,-17l62.2,-62.2l-62.2,-62.2c-4.7,-4.7 -4.7,-12.3 0,-17l22.6,-22.6c4.7,-4.7 12.3,-4.7 17,0l62.2,62.2l62.2,-62.2c4.7,-4.7 12.3,-4.7 17,0l22.6,22.6c4.7,4.7 4.7,12.3 0,17z" fill="#ffffff"/>
 </g>
</svg>